<svg xmlns="http://www.w3.org/2000/svg" xmlns:xlink="http://www.w3.org/1999/xlink" viewBox="0 0 430 430" width="430" height="430" preserveAspectRatio="xMidYMid meet" style="width: 100%; height: 100%; transform: translate3d(0px, 0px, 0px); content-visibility: visible;"><defs><clipPath id="__lottie_element_2"><rect width="430" height="430" x="0" y="0"/></clipPath><clipPath id="__lottie_element_4"><path d="M0,0 L430,0 L430,430 L0,430z"/></clipPath></defs><g clip-path="url(#__lottie_element_2)"><g clip-path="url(#__lottie_element_4)" transform="matrix(1,0,0,1,0,0)" opacity="1" style="display: block;"><g transform="matrix(1.0185825824737549,0,0,0.9814174175262451,215.0020751953125,226.3614959716797)" opacity="1" style="display: block;"><g opacity="1" transform="matrix(1,0,0,1,0,0)"><path class="primary" fill="rgb(249,201,192)" fill-opacity="1" d=" M-27.302000045776367,-170.89500427246094 C-27.302000045776367,-170.89500427246094 -28.79199981689453,-171.27499389648438 -28.79199981689453,-171.27499389648438 C-28.79199981689453,-171.27499389648438 -29.922000885009766,-171.52499389648438 -29.922000885009766,-171.52499389648438 C-30.68199920654297,-171.6649932861328 -31.45199966430664,-171.7949981689453 -32.231998443603516,-171.90499877929688 C-32.33000183105469,-171.91700744628906 -32.42599868774414,-171.93099975585938 -32.52399826049805,-171.94400024414062 C-32.816001892089844,-171.98300170898438 -33.10900115966797,-172.02200317382812 -33.402000427246094,-172.0449981689453 C-33.821998596191406,-172.09500122070312 -34.242000579833984,-172.125 -34.672000885009766,-172.15499877929688 C-34.672000885009766,-172.15499877929688 -34.70899963378906,-172.1580047607422 -34.70899963378906,-172.1580047607422 C-35.11800003051758,-172.18699645996094 -35.391998291015625,-172.2050018310547 -35.742000579833984,-172.21499633789062 C-35.742000579833984,-172.21499633789062 -37.242000579833984,-172.21499633789062 -37.242000579833984,-172.21499633789062 C-56.79199981689453,-172.2449951171875 -71.97200012207031,-157.43499755859375 -73.97200012207031,-138.43499755859375 C-73.97200012207031,-138.43499755859375 -74.19200134277344,-138.43499755859375 -74.19200134277344,-138.43499755859375 C-84.21600341796875,-138.4219970703125 -93.82599639892578,-134.42999267578125 -100.91000366210938,-127.33699798583984 C-107.99400329589844,-120.24400329589844 -111.97200012207031,-110.62899780273438 -111.97200012207031,-100.6050033569336 C-111.97200012207031,-100.6050033569336 -111.97200012207031,-100.3550033569336 -111.97200012207031,-100.3550033569336 C-111.97200012207031,-99.11499786376953 -111.89199829101562,-97.8949966430664 -111.77200317382812,-96.68499755859375 C-112.86199951171875,-96.2750015258789 -113.93199920654297,-95.81500244140625 -114.98200225830078,-95.31500244140625 C-120.55599975585938,-92.65699768066406 -125.47699737548828,-88.80500030517578 -129.39500427246094,-84.03099822998047 C-133.31300354003906,-79.25700378417969 -136.1300048828125,-73.67900085449219 -137.6490020751953,-67.69300079345703 C-139.16799926757812,-61.707000732421875 -139.35000610351562,-55.459999084472656 -138.1820068359375,-49.395999908447266 C-137.01400756835938,-43.332000732421875 -134.52499389648438,-37.5989990234375 -130.89199829101562,-32.60499954223633 C-135.93099975585938,-29.518999099731445 -140.26300048828125,-25.406999588012695 -143.60699462890625,-20.53499984741211 C-146.9510040283203,-15.663000106811523 -149.2310028076172,-10.142000198364258 -150.2989959716797,-4.330999851226807 C-151.36700439453125,1.4800000190734863 -151.197998046875,7.451000213623047 -149.80499267578125,13.192999839782715 C-148.41200256347656,18.934999465942383 -145.8249969482422,24.319000244140625 -142.21200561523438,28.9950008392334 C-141.5019989013672,29.924999237060547 -140.7519989013672,30.815000534057617 -139.96200561523438,31.674999237060547 C-140.93699645996094,32.36800003051758 -141.8719940185547,33.11600112915039 -142.76199340820312,33.915000915527344 C-146.76600646972656,37.45600128173828 -149.86599731445312,41.9010009765625 -151.80499267578125,46.88199996948242 C-153.74400329589844,51.862998962402344 -154.46499633789062,57.23400115966797 -153.9080047607422,62.54999923706055 C-153.3509979248047,67.86599731445312 -151.5330047607422,72.97200012207031 -148.60499572753906,77.44300079345703 C-145.677001953125,81.91400146484375 -141.7220001220703,85.62100219726562 -137.07200622558594,88.25499725341797 C-139.05499267578125,94.81300354003906 -139.4759979248047,101.74400329589844 -138.302001953125,108.49299621582031 C-137.1280059814453,115.24199676513672 -134.38999938964844,121.62300109863281 -130.30799865722656,127.125 C-126.22599792480469,132.6269989013672 -120.91400146484375,137.0989990234375 -114.7959976196289,140.18099975585938 C-108.6780014038086,143.26300048828125 -101.9229965209961,144.8699951171875 -95.0719985961914,144.875 C-93.75199890136719,144.875 -92.4520034790039,144.80499267578125 -91.16200256347656,144.68499755859375 C-87.31300354003906,152.92599487304688 -81.19100189208984,159.89700317382812 -73.51799774169922,164.781005859375 C-65.84500122070312,169.6649932861328 -56.9379997253418,172.2570037841797 -47.84199905395508,172.2550048828125 C-47.84199905395508,172.2550048828125 -46.391998291015625,172.2550048828125 -46.391998291015625,172.2550048828125 C-45.641998291015625,172.2550048828125 -44.902000427246094,172.2550048828125 -44.1619987487793,172.15499877929688 C-44.1619987487793,172.15499877929688 -44.051998138427734,172.15499877929688 -44.051998138427734,172.15499877929688 C-44.051998138427734,172.15499877929688 -42.801998138427734,172.03500366210938 -42.801998138427734,172.03500366210938 C-42.801998138427734,172.03500366210938 -41.571998596191406,171.88499450683594 -41.571998596191406,171.88499450683594 C-41.0620002746582,171.81500244140625 -40.571998596191406,171.7449951171875 -40.03200149536133,171.65499877929688 C-40.03200149536133,171.65499877929688 -39.59199905395508,171.5749969482422 -39.59199905395508,171.5749969482422 C-39.03200149536133,171.47500610351562 -38.481998443603516,171.375 -37.93199920654297,171.2449951171875 C-27.81800079345703,169.0540008544922 -18.680999755859375,163.65899658203125 -11.876999855041504,155.86199951171875 C-5.072999954223633,148.06500244140625 -0.9639999866485596,138.28199768066406 -0.16200000047683716,127.96499633789062 C-0.07199999690055847,126.7249984741211 -0.02199999988079071,125.49500274658203 -0.02199999988079071,124.24500274658203 C-0.02199999988079071,124.24500274658203 -0.02199999988079071,-134.40499877929688 -0.02199999988079071,-134.40499877929688 C0.06300000101327896,-142.63699340820312 -2.561000108718872,-150.66900634765625 -7.491000175476074,-157.26300048828125 C-12.420999526977539,-163.85699462890625 -19.381999969482422,-168.64700317382812 -27.302000045776367,-170.89500427246094z M154.08999633789062,58.994998931884766 C154.07699584960938,53.64400100708008 152.78900146484375,48.37300109863281 150.33399963378906,43.61899948120117 C147.87899780273438,38.8650016784668 144.3260040283203,34.76300048828125 139.97000122070312,31.655000686645508 C140.75,30.795000076293945 141.5,29.905000686645508 142.2100067138672,28.975000381469727 C145.822998046875,24.302000045776367 148.41099548339844,18.920000076293945 149.80499267578125,13.180000305175781 C151.19900512695312,7.440000057220459 151.36700439453125,1.4700000286102295 150.3000030517578,-4.340000152587891 C149.23300170898438,-10.149999618530273 146.9550018310547,-15.668999671936035 143.61199951171875,-20.538999557495117 C140.2689971923828,-25.409000396728516 135.93800354003906,-29.520000457763672 130.89999389648438,-32.60499954223633 C134.53399658203125,-37.59600067138672 137.02499389648438,-43.32699966430664 138.1959991455078,-49.388999938964844 C139.36700439453125,-55.45100021362305 139.18899536132812,-61.69599914550781 137.6739959716797,-67.68199920654297 C136.15899658203125,-73.66799926757812 133.34500122070312,-79.24600219726562 129.4320068359375,-84.02200317382812 C125.51899719238281,-88.7979965209961 120.60099792480469,-92.65299987792969 115.02999877929688,-95.31500244140625 C113.9800033569336,-95.81500244140625 112.91000366210938,-96.31500244140625 111.81999969482422,-96.68499755859375 C111.94000244140625,-97.8949966430664 112.01000213623047,-99.11499786376953 112.0199966430664,-100.34500122070312 C112.0199966430664,-100.34500122070312 112.0199966430664,-100.6050033569336 112.0199966430664,-100.6050033569336 C112.02100372314453,-105.57499694824219 111.04299926757812,-110.49800109863281 109.14099884033203,-115.08999633789062 C107.23899841308594,-119.68199920654297 104.45099639892578,-123.85399627685547 100.93599700927734,-127.36799621582031 C97.4209976196289,-130.8820037841797 93.2490005493164,-133.66900634765625 88.65599822998047,-135.57000732421875 C84.06300354003906,-137.4709930419922 79.13999938964844,-138.447998046875 74.16999816894531,-138.44500732421875 C74.16999816894531,-138.44500732421875 73.97000122070312,-138.44500732421875 73.97000122070312,-138.44500732421875 C71.97000122070312,-157.44500732421875 56.79999923706055,-172.2550048828125 37.27000045776367,-172.2550048828125 C16.3700008392334,-172.2550048828125 -0.019999999552965164,-155.2550048828125 -0.019999999552965164,-134.4149932861328 C-0.019999999552965164,-134.4149932861328 -0.019999999552965164,124.16500091552734 -0.019999999552965164,124.16500091552734 C-0.019999999552965164,125.41500091552734 0.029999999329447746,126.6449966430664 0.11999999731779099,127.88500213623047 C0.8970000147819519,138.43299865722656 5.150000095367432,148.42599487304688 12.211999893188477,156.3000030517578 C19.27400016784668,164.1739959716797 28.746999740600586,169.48300170898438 39.14899826049805,171.3990020751953 C49.55099868774414,173.31500244140625 60.29399871826172,171.72799682617188 69.697998046875,166.88699340820312 C79.10199737548828,162.04600524902344 86.63600158691406,154.2239990234375 91.12000274658203,144.64500427246094 C92.4000015258789,144.76499938964844 93.70999908447266,144.8350067138672 95.0199966430664,144.8350067138672 C101.87100219726562,144.8300018310547 108.6259994506836,143.22300720214844 114.74400329589844,140.14100646972656 C120.86199951171875,137.0590057373047 126.17400360107422,132.58700561523438 130.25599670410156,127.08499908447266 C134.33799743652344,121.58300018310547 137.0760040283203,115.2020034790039 138.25,108.4530029296875 C139.4239959716797,101.7040023803711 139.0030059814453,94.77300262451172 137.02000427246094,88.21499633789062 C142.19900512695312,85.29299926757812 146.50900268554688,81.0479965209961 149.50799560546875,75.91400146484375 C152.5070037841797,70.77999877929688 154.08799743652344,64.94100189208984 154.08999633789062,58.994998931884766z"/></g></g><g transform="matrix(1.0185825824737549,0,0,0.9814174175262451,215.0020751953125,227.0926513671875)" opacity="0.5" style="mix-blend-mode: multiply; display: block;"><g opacity="1" transform="matrix(1,0,0,1,0,0)"><path stroke-linecap="round" stroke-linejoin="round" fill-opacity="0" class="primary" stroke-dasharray=" 166" stroke-dashoffset="0" stroke="rgb(249,201,192)" stroke-opacity="1" stroke-width="7" d="M0 0"/><path stroke-linecap="round" stroke-linejoin="round" fill-opacity="0" class="primary" stroke="rgb(249,201,192)" stroke-opacity="1" stroke-width="7" d="M0 0"/><path stroke-linecap="round" stroke-linejoin="round" fill-opacity="0" class="primary" stroke-dasharray=" 166" stroke-dashoffset="0" stroke="rgb(249,201,192)" stroke-opacity="0" stroke-width="7" d="M0 0"/></g><g opacity="1" transform="matrix(1,0,0,1,0,0)"><path stroke-linecap="round" stroke-linejoin="round" fill-opacity="0" class="primary" stroke="rgb(249,201,192)" stroke-opacity="1" stroke-width="7" d="M0 0"/></g></g><g transform="matrix(1.0185825824737549,0,0,0.9814174175262451,215.11614990234375,226.35658264160156)" opacity="0.5" style="mix-blend-mode: multiply; display: block;"><g opacity="1" transform="matrix(1,0,0,1,0,0)"><path stroke-linecap="round" stroke-linejoin="round" fill-opacity="0" class="primary" stroke-dasharray=" 166" stroke-dashoffset="0" stroke="rgb(249,201,192)" stroke-opacity="1" stroke-width="7" d=" M-89.91999816894531,77.89600372314453 C-83.75499725341797,62.316001892089844 -68.55500030517578,51.29499816894531 -50.78200149536133,51.29499816894531 M-40.79399871826172,5.711999893188477 C-50.08100128173828,14.97599983215332 -64.43299865722656,18.148000717163086 -77.19499969482422,12.602999687194824 M-19.933000564575195,-8.73799991607666 C-26.09000015258789,-5.85099983215332 -32.9630012512207,-4.23799991607666 -40.21200180053711,-4.23799991607666 C-61.763999938964844,-4.23799991607666 -79.98600006103516,-18.493999481201172 -85.96499633789062,-38.09000015258789 M89.69499969482422,77.89600372314453 C83.52999877929688,62.316001892089844 68.33100128173828,51.29499816894531 50.55799865722656,51.29499816894531 M30.152999877929688,80.67400360107422 C12.442000389099121,87.68199920654297 -0.0860000029206276,104.95999908447266 -0.0860000029206276,125.16400146484375"/><path stroke-linecap="round" stroke-linejoin="round" fill-opacity="0" class="primary" stroke="rgb(249,201,192)" stroke-opacity="1" stroke-width="7" d=" M-89.91999816894531,77.89600372314453 C-83.75499725341797,62.316001892089844 -68.55500030517578,51.29499816894531 -50.78200149536133,51.29499816894531 M-40.79399871826172,5.711999893188477 C-50.08100128173828,14.97599983215332 -64.43299865722656,18.148000717163086 -77.19499969482422,12.602999687194824 M-19.933000564575195,-8.73799991607666 C-26.09000015258789,-5.85099983215332 -32.9630012512207,-4.23799991607666 -40.21200180053711,-4.23799991607666 C-61.763999938964844,-4.23799991607666 -79.98600006103516,-18.493999481201172 -85.96499633789062,-38.09000015258789 M89.69499969482422,77.89600372314453 C83.52999877929688,62.316001892089844 68.33100128173828,51.29499816894531 50.55799865722656,51.29499816894531 M30.152999877929688,80.67400360107422 C12.442000389099121,87.68199920654297 -0.0860000029206276,104.95999908447266 -0.0860000029206276,125.16400146484375"/><path stroke-linecap="round" stroke-linejoin="round" fill-opacity="0" class="primary" stroke-dasharray=" 166" stroke-dashoffset="0" stroke="rgb(249,201,192)" stroke-opacity="0" stroke-width="7" d=" M-89.91999816894531,77.89600372314453 C-83.75499725341797,62.316001892089844 -68.55500030517578,51.29499816894531 -50.78200149536133,51.29499816894531 M-40.79399871826172,5.711999893188477 C-50.08100128173828,14.97599983215332 -64.43299865722656,18.148000717163086 -77.19499969482422,12.602999687194824 M-19.933000564575195,-8.73799991607666 C-26.09000015258789,-5.85099983215332 -32.9630012512207,-4.23799991607666 -40.21200180053711,-4.23799991607666 C-61.763999938964844,-4.23799991607666 -79.98600006103516,-18.493999481201172 -85.96499633789062,-38.09000015258789 M89.69499969482422,77.89600372314453 C83.52999877929688,62.316001892089844 68.33100128173828,51.29499816894531 50.55799865722656,51.29499816894531 M30.152999877929688,80.67400360107422 C12.442000389099121,87.68199920654297 -0.0860000029206276,104.95999908447266 -0.0860000029206276,125.16400146484375"/></g><g opacity="1" transform="matrix(1,0,0,1,0,0)"><path stroke-linecap="round" stroke-linejoin="round" fill-opacity="0" class="primary" stroke="rgb(249,201,192)" stroke-opacity="1" stroke-width="7" d=" M19.70800018310547,-8.73799991607666 C25.864999771118164,-5.85099983215332 32.737998962402344,-4.23799991607666 39.98699951171875,-4.23799991607666 C61.53900146484375,-4.23799991607666 79.76200103759766,-18.493999481201172 85.74099731445312,-38.09000015258789 M-30.37700080871582,80.67400360107422 C-12.666000366210938,87.68199920654297 -0.13899999856948853,104.95999908447266 -0.13899999856948853,125.16400146484375 M-12.883999824523926,-118.6520004272461 C-10.961999893188477,-117.89199829101562 -9.1850004196167,-116.84500122070312 -7.605000019073486,-115.56500244140625 C-3.0329999923706055,-111.86100006103516 -0.10899999737739563,-106.19999694824219 -0.10899999737739563,-99.85700225830078 M40.56999969482422,5.711999893188477 C49.856998443603516,14.97599983215332 64.20800018310547,18.148000717163086 76.97000122070312,12.602999687194824 M12.65999984741211,-118.65299987792969 C10.73799991607666,-117.89199829101562 8.960000038146973,-116.84500122070312 7.380000114440918,-115.56500244140625 C2.808000087738037,-111.86100006103516 -0.11500000208616257,-106.19999694824219 -0.11500000208616257,-99.85700225830078"/></g></g><g transform="matrix(1.0185825824737549,0,0,0.9814174175262451,136.51519775390625,227.3232879638672)" opacity="0.5" style="mix-blend-mode: multiply; display: block;"><g opacity="1" transform="matrix(1,0,0,1,0,0)"><path class="primary" fill="rgb(249,201,192)" fill-opacity="1" d=" M49.75299835205078,-170.9149932861328 C49.75299835205078,-170.9149932861328 48.26300048828125,-171.2949981689453 48.26300048828125,-171.2949981689453 C48.26300048828125,-171.2949981689453 47.132999420166016,-171.5449981689453 47.132999420166016,-171.5449981689453 C46.37300109863281,-171.68499755859375 45.60300064086914,-171.81500244140625 44.823001861572266,-171.9250030517578 C44.724998474121094,-171.93699645996094 44.62900161743164,-171.9510040283203 44.53099822998047,-171.96400451660156 C44.23899841308594,-172.0030059814453 43.94599914550781,-172.04200744628906 43.65299987792969,-172.06500244140625 C43.233001708984375,-172.11500549316406 42.8129997253418,-172.14500427246094 42.382999420166016,-172.1750030517578 C42.382999420166016,-172.1750030517578 42.34600067138672,-172.17799377441406 42.34600067138672,-172.17799377441406 C41.9370002746582,-172.20700073242188 41.66299819946289,-172.22500610351562 41.3129997253418,-172.23500061035156 C41.3129997253418,-172.23500061035156 39.8129997253418,-172.23500061035156 39.8129997253418,-172.23500061035156 C20.26300048828125,-172.26499938964844 5.083000183105469,-157.4550018310547 3.0829999446868896,-138.4550018310547 C3.0829999446868896,-138.4550018310547 2.86299991607666,-138.4550018310547 2.86299991607666,-138.4550018310547 C-7.160999774932861,-138.44200134277344 -16.770000457763672,-134.4499969482422 -23.854000091552734,-127.35700225830078 C-30.937999725341797,-120.26399993896484 -34.91699981689453,-110.64900207519531 -34.91699981689453,-100.625 C-34.91699981689453,-100.625 -34.91699981689453,-100.375 -34.91699981689453,-100.375 C-34.91699981689453,-99.13500213623047 -34.83700180053711,-97.91500091552734 -34.71699905395508,-96.70500183105469 C-35.80699920654297,-96.29499816894531 -36.87699890136719,-95.83499908447266 -37.926998138427734,-95.33499908447266 C-43.500999450683594,-92.677001953125 -48.422000885009766,-88.82499694824219 -52.34000015258789,-84.0510025024414 C-56.257999420166016,-79.2770004272461 -59.07500076293945,-73.6989974975586 -60.59400177001953,-67.71299743652344 C-62.112998962402344,-61.72700119018555 -62.29499816894531,-55.47999954223633 -61.12699890136719,-49.41600036621094 C-59.95899963378906,-43.35200119018555 -57.470001220703125,-37.61899948120117 -53.83700180053711,-32.625 C-58.875999450683594,-29.538999557495117 -63.20800018310547,-25.427000045776367 -66.552001953125,-20.55500030517578 C-69.89600372314453,-15.682999610900879 -72.1760025024414,-10.161999702453613 -73.24400329589844,-4.35099983215332 C-74.31199645996094,1.4600000381469727 -74.14299774169922,7.431000232696533 -72.75,13.17300033569336 C-71.35700225830078,18.915000915527344 -68.7699966430664,24.298999786376953 -65.15699768066406,28.975000381469727 C-64.4469985961914,29.905000686645508 -63.696998596191406,30.795000076293945 -62.90700149536133,31.655000686645508 C-63.88199996948242,32.347999572753906 -64.81700134277344,33.09600067138672 -65.70700073242188,33.89500045776367 C-69.71099853515625,37.43600082397461 -72.81099700927734,41.88100051879883 -74.75,46.86199951171875 C-76.68900299072266,51.84299850463867 -77.41000366210938,57.2140007019043 -76.85299682617188,62.529998779296875 C-76.2959976196289,67.84600067138672 -74.47699737548828,72.9520034790039 -71.54900360107422,77.4229965209961 C-68.62100219726562,81.89399719238281 -64.66699981689453,85.60099792480469 -60.016998291015625,88.23500061035156 C-62,94.79299926757812 -62.42100143432617,101.7239990234375 -61.24700164794922,108.4729995727539 C-60.073001861572266,115.22200012207031 -57.334999084472656,121.60299682617188 -53.25299835205078,127.1050033569336 C-49.17100143432617,132.60699462890625 -43.85900115966797,137.07899475097656 -37.74100112915039,140.16099548339844 C-31.62299919128418,143.2429962158203 -24.868000030517578,144.85000610351562 -18.017000198364258,144.85499572753906 C-16.69700050354004,144.85499572753906 -15.397000312805176,144.78500366210938 -14.107000350952148,144.6649932861328 C-10.258000373840332,152.906005859375 -4.136000156402588,159.8769989013672 3.5369999408721924,164.76100158691406 C11.210000038146973,169.64500427246094 20.117000579833984,172.23699951171875 29.21299934387207,172.23500061035156 C29.21299934387207,172.23500061035156 30.663000106811523,172.23500061035156 30.663000106811523,172.23500061035156 C31.413000106811523,172.23500061035156 32.15299987792969,172.23500061035156 32.893001556396484,172.13499450683594 C32.893001556396484,172.13499450683594 33.00299835205078,172.13499450683594 33.00299835205078,172.13499450683594 C33.00299835205078,172.13499450683594 34.25299835205078,172.01499938964844 34.25299835205078,172.01499938964844 C34.25299835205078,172.01499938964844 35.483001708984375,171.86500549316406 35.483001708984375,171.86500549316406 C35.99300003051758,171.7949981689453 36.483001708984375,171.72500610351562 37.02299880981445,171.63499450683594 C37.02299880981445,171.63499450683594 37.4630012512207,171.55499267578125 37.4630012512207,171.55499267578125 C38.02299880981445,171.4550018310547 38.573001861572266,171.35499572753906 39.12300109863281,171.22500610351562 C49.23699951171875,169.03399658203125 58.374000549316406,163.63900756835938 65.1780014038086,155.8419952392578 C71.98200225830078,148.0449981689453 76.09100341796875,138.26199340820312 76.89299774169922,127.94499969482422 C76.98300170898438,126.70500183105469 77.03299713134766,125.4749984741211 77.03299713134766,124.2249984741211 C77.03299713134766,124.2249984741211 77.03299713134766,-134.4250030517578 77.03299713134766,-134.4250030517578 C77.11799621582031,-142.65699768066406 74.49400329589844,-150.68899536132812 69.56400299072266,-157.2830047607422 C64.63400268554688,-163.8769989013672 57.67300033569336,-168.66700744628906 49.75299835205078,-170.9149932861328z"/></g></g></g></g></svg>