<svg xmlns="http://www.w3.org/2000/svg" xmlns:xlink="http://www.w3.org/1999/xlink" viewBox="0 0 430 430" width="430" height="430" preserveAspectRatio="xMidYMid meet" style="width: 100%; height: 100%; transform: translate3d(0px, 0px, 0px); content-visibility: visible;"><defs><clipPath id="__lottie_element_2"><rect width="430" height="430" x="0" y="0"/></clipPath><clipPath id="__lottie_element_4"><path d="M0,0 L430,0 L430,430 L0,430z"/></clipPath></defs><g clip-path="url(#__lottie_element_2)"><g clip-path="url(#__lottie_element_4)" transform="matrix(1,0,0,1,0,0)" opacity="1" style="display: block;"><g transform="matrix(1,0,0,1,315,235.5)" opacity="1" style="display: block;"><g opacity="1" transform="matrix(1,0,0,1,0,0)"><path class="tertiary" fill="rgb(242,139,168)" fill-opacity="1" d=" M35,-200.48988342285156 C35,-202.1455841064453 33.65570068359375,-203.48988342285156 32,-203.48988342285156 C32,-203.48988342285156 -32,-203.48988342285156 -32,-203.48988342285156 C-33.65570068359375,-203.48988342285156 -35,-202.1455841064453 -35,-200.48988342285156 C-35,-200.48988342285156 -35,137 -35,137 C-35,138.65570068359375 -33.65570068359375,140 -32,140 C-32,140 32,140 32,140 C33.65570068359375,140 35,138.65570068359375 35,137 C35,137 35,-200.48988342285156 35,-200.48988342285156z"/></g><g opacity="1" transform="matrix(1,0,0,1,-17.5,0)" style="mix-blend-mode: multiply;"><path class="tertiary" fill="rgb(242,139,168)" fill-opacity="0.5" d=" M17.5,-200.48988342285156 C17.5,-202.1455841064453 16.15570068359375,-203.48988342285156 14.5,-203.48988342285156 C14.5,-203.48988342285156 -14.5,-203.48988342285156 -14.5,-203.48988342285156 C-16.15570068359375,-203.48988342285156 -17.5,-202.1455841064453 -17.5,-200.48988342285156 C-17.5,-200.48988342285156 -17.5,137 -17.5,137 C-17.5,138.65570068359375 -16.15570068359375,140 -14.5,140 C-14.5,140 14.5,140 14.5,140 C16.15570068359375,140 17.5,138.65570068359375 17.5,137 C17.5,137 17.5,-200.48988342285156 17.5,-200.48988342285156z"/></g></g><g transform="matrix(1,0,0,1,215,280.5)" opacity="1" style="display: block;"><g opacity="1" transform="matrix(1,0,0,1,0,0)"><path class="secondary" fill="rgb(242,76,0)" fill-opacity="1" d=" M35,-166.25775146484375 C35,-167.9134521484375 33.65570068359375,-169.25775146484375 32,-169.25775146484375 C32,-169.25775146484375 -32,-169.25775146484375 -32,-169.25775146484375 C-33.65570068359375,-169.25775146484375 -35,-167.9134521484375 -35,-166.25775146484375 C-35,-166.25775146484375 -35,92 -35,92 C-35,93.65570068359375 -33.65570068359375,95 -32,95 C-32,95 32,95 32,95 C33.65570068359375,95 35,93.65570068359375 35,92 C35,92 35,-166.25775146484375 35,-166.25775146484375z"/></g><g opacity="1" transform="matrix(1,0,0,1,-17.5,0)" style="mix-blend-mode: multiply;"><path class="secondary" fill="rgb(242,76,0)" fill-opacity="0.5" d=" M17.5,-166.25775146484375 C17.5,-167.9134521484375 16.15570068359375,-169.25775146484375 14.5,-169.25775146484375 C14.5,-169.25775146484375 -14.5,-169.25775146484375 -14.5,-169.25775146484375 C-16.15570068359375,-169.25775146484375 -17.5,-167.9134521484375 -17.5,-166.25775146484375 C-17.5,-166.25775146484375 -17.5,92 -17.5,92 C-17.5,93.65570068359375 -16.15570068359375,95 -14.5,95 C-14.5,95 14.5,95 14.5,95 C16.15570068359375,95 17.5,93.65570068359375 17.5,92 C17.5,92 17.5,-166.25775146484375 17.5,-166.25775146484375z"/></g></g><g transform="matrix(1,0,0,1,115,325.5)" opacity="1" style="display: block;"><g opacity="1" transform="matrix(1,0,0,1,0,0)"><path class="primary" fill="rgb(255,199,56)" fill-opacity="1" d=" M35,-102.32479095458984 C35,-103.9804916381836 33.65570068359375,-105.32479095458984 32,-105.32479095458984 C32,-105.32479095458984 -32,-105.32479095458984 -32,-105.32479095458984 C-33.65570068359375,-105.32479095458984 -35,-103.9804916381836 -35,-102.32479095458984 C-35,-102.32479095458984 -35,47 -35,47 C-35,48.65570068359375 -33.65570068359375,50 -32,50 C-32,50 32,50 32,50 C33.65570068359375,50 35,48.65570068359375 35,47 C35,47 35,-102.32479095458984 35,-102.32479095458984z"/></g><g opacity="1" transform="matrix(1,0,0,1,-18,0)" style="mix-blend-mode: multiply;"><path class="primary" fill="rgb(255,199,56)" fill-opacity="0.5" d=" M17.5,-102.32479095458984 C17.5,-103.9804916381836 16.15570068359375,-105.32479095458984 14.5,-105.32479095458984 C14.5,-105.32479095458984 -14.5,-105.32479095458984 -14.5,-105.32479095458984 C-16.15570068359375,-105.32479095458984 -17.5,-103.9804916381836 -17.5,-102.32479095458984 C-17.5,-102.32479095458984 -17.5,47 -17.5,47 C-17.5,48.65570068359375 -16.15570068359375,50 -14.5,50 C-14.5,50 14.5,50 14.5,50 C16.15570068359375,50 17.5,48.65570068359375 17.5,47 C17.5,47 17.5,-102.32479095458984 17.5,-102.32479095458984z"/></g></g><g transform="matrix(1,0,0,1,215,375)" opacity="1" style="display: block;"><g opacity="1" transform="matrix(1,0,0,1,0,0)"><path stroke-linecap="round" stroke-linejoin="round" fill-opacity="0" class="quaternary" stroke="rgb(58,51,71)" stroke-opacity="1" stroke-width="7" d=" M160,0 C160,0 -160,0 -160,0"/></g></g></g></g></svg>